inDegrees=no
num_controls=7
num_derivatives=13
num_iterations=70
num_multipliers=7
num_parameters=0
num_slacks=7
num_states=26
objective=0.438012
objective_accelerations=0.061799
objective_balance=0.004528
objective_effort=0.055581
objective_height=0.309211
objective_ligament=0.006894
solver_duration=990.225774
status=Solve_Succeeded
success=true
DataType=double
version=3
OpenSimVersion=4.5
endheader
time	/jointset/ground_pelvis/pelvis_tilt/value	/jointset/ground_pelvis/pelvis_tx/value	/jointset/ground_pelvis/pelvis_ty/value	/jointset/hip_l/hip_flexion_l/value	/jointset/hip_l/hip_adduction_l/value	/jointset/hip_l/hip_rotation_l/value	/jointset/back/lumbar_extension/value	/jointset/patellofemoral_l/patellar_flexion_l/value	/jointset/knee_l/knee_flexion_l/value	/jointset/knee_l/knee_adduction_l/value	/jointset/knee_l/knee_rotation_l/value	/jointset/ankle_l/ankle_angle_l/value	/jointset/subtalar_l/subtalar_angle_l/value	/jointset/ground_pelvis/pelvis_tilt/speed	/jointset/ground_pelvis/pelvis_tx/speed	/jointset/ground_pelvis/pelvis_ty/speed	/jointset/hip_l/hip_flexion_l/speed	/jointset/hip_l/hip_adduction_l/speed	/jointset/hip_l/hip_rotation_l/speed	/jointset/back/lumbar_extension/speed	/jointset/patellofemoral_l/patellar_flexion_l/speed	/jointset/knee_l/knee_flexion_l/speed	/jointset/knee_l/knee_adduction_l/speed	/jointset/knee_l/knee_rotation_l/speed	/jointset/ankle_l/ankle_angle_l/speed	/jointset/subtalar_l/subtalar_angle_l/speed	/forceset/tau_hip_flexion_l	/forceset/tau_hip_adduction_l	/forceset/tau_hip_rotation_l	/forceset/tau_knee_flexion_l	/forceset/tau_ankle_angle_l	/forceset/tau_subtalar_angle_l	/forceset/tau_lumbar_extension	lambda_cid13_p0	lambda_cid13_p1	lambda_cid13_p2	lambda_cid13_p3	lambda_cid13_p4	lambda_cid13_p5	lambda_cid14_p0	/jointset/ground_pelvis/pelvis_tilt/accel	/jointset/ground_pelvis/pelvis_tx/accel	/jointset/ground_pelvis/pelvis_ty/accel	/jointset/hip_l/hip_flexion_l/accel	/jointset/hip_l/hip_adduction_l/accel	/jointset/hip_l/hip_rotation_l/accel	/jointset/back/lumbar_extension/accel	/jointset/patellofemoral_l/patellar_flexion_l/accel	/jointset/knee_l/knee_flexion_l/accel	/jointset/knee_l/knee_adduction_l/accel	/jointset/knee_l/knee_rotation_l/accel	/jointset/ankle_l/ankle_angle_l/accel	/jointset/subtalar_l/subtalar_angle_l/accel	gamma_cid13_p0	gamma_cid13_p1	gamma_cid13_p2	gamma_cid13_p3	gamma_cid13_p4	gamma_cid13_p5	gamma_cid14_p0
1.5	-0.05522652237230228	-0.0602822845439103	0.738333652230033	1.126935819439183	-0.3101217685050983	-0.06389544910394701	-0.8603862168594599	1.215496706032877	1.215496706032868	0.02327308344939864	-0.174503166438037	0.2382200057290853	0.07267809749747876	0.3833073645061365	0.2219307766770364	0.9129093172494281	-3.093987608591339	0.03093351071138188	-0.6538613447275319	0.7371244423860668	-3.031574637275934	-3.031574637275953	-0.475861722058939	-0.0004323079340232677	-0.5118212421828082	-0.1752130421992441	-0.2757562165029317	0.03238485263828687	-0.01699752227844333	-0.3107268968150789	0.1100618483257401	0.02947216012473302	0.345387915032215	-6.764726854571253	-8.30112084788232	-2.916476500840207	-20.65906685857472	-673.8950962149347	-51.3886264018002	-0.7218762159420299	1.197578399584487	1.364886316809218	-0.8673515584067651	-1.790664112790338	0.4109962319569206	-0.8973316577512094	3.134978158618527	-2.446282306557954	-2.446282306557954	-0.1961328888408033	0.07640186138689206	-2.004891841728526	-0.2109543434893995	5.24457572262225e-07	3.646985743376078e-06	-9.098528776119572e-07	4.998274434213801e-07	6.490926713483886e-07	1.920614153072113e-07	6.596379801717301e-07
1.51	-0.05133432236573626	-0.05799467335195195	0.7474171510776952	1.095909100823364	-0.3097939393729725	-0.07048031894826268	-0.8528590649361064	1.185062145945653	1.185062145945649	0.01850290705950774	-0.1745078925098987	0.2330027301878691	0.07091345546754727	0.3950075800625016	0.2355915733000485	0.9035609836999482	-3.110992924852164	0.03464117260945272	-0.6630895938855617	0.7682749230061791	-3.054931597291724	-3.054931597291735	-0.4781601739031544	-0.0005021478561904964	-0.531447134803539	-0.1776104003902229	-0.2657946817927602	0.03247130101592798	-0.01638107323202416	-0.3023982679455249	0.1098476806596008	0.02964032521445675	0.3352952978902507	-6.182643807141469	-8.715767273770945	-2.576582452472417	-20.93943149290548	-663.7241459408571	-51.46158871671363	-1.20803231739013	1.137544331140691	1.366788303401019	-1.002846528663386	-1.600924052559201	0.3518035517461728	-0.9313683473387288	3.100430121979049	-2.219680478739147	-2.219680478737824	-0.2439620933884517	-0.04725832762286266	-1.913223826624218	-0.2388921422292327	5.812070999964401e-07	3.905948347391387e-06	-1.076638946059372e-06	4.842023108592759e-07	7.091311147252261e-07	3.018894903224403e-07	7.029787291770051e-07
1.52	-0.04732885996411078	-0.0555704318000927	0.7564003121347735	1.064723237310972	-0.3094288031452633	-0.07715663064465977	-0.8450213387848972	1.154406160732341	1.154406160732341	0.01371029399893573	-0.17451303326268	0.2275948385495698	0.06912788673864055	0.405959843517993	0.2492568486572165	0.8928417591326718	-3.125816587906215	0.03839492982808479	-0.6721497151439845	0.7992392879571493	-3.075859662493499	-3.075859662493501	-0.4803490561944302	-0.000515244122528647	-0.5499444615994245	-0.1793983819942853	-0.2558331470825855	0.03255774939357082	-0.01576462418562042	-0.2940696390759717	0.1096335129934615	0.02980849030418299	0.3252026807482892	-5.599105113458234	-9.145438306933443	-2.217422667863684	-21.28936996458911	-653.5382778325178	-51.63426632102078	-1.814466223811676	1.047987979409735	1.365782063640392	-1.141529761966033	-1.354333471435431	0.4202152960692574	-0.8637060778296927	3.097755024790155	-1.960503343754992	-1.960503343754995	-0.1742189782528649	0.08775059255290057	-1.779178676759485	-0.08907902610603657	6.377854250845694e-07	4.202894264803801e-06	-1.219919703430359e-06	4.741818858736342e-07	7.765159186392295e-07	4.424401187598456e-07	7.469272646300199e-07
1.53	-0.04321765441373282	-0.05300968415172495	0.7652695434705448	1.033399987207226	-0.3090260174839842	-0.08392284503155069	-0.8368754302040073	1.123553056048595	1.123553056048588	0.008896001786054954	-0.1745182762078538	0.2220076226670231	0.06732731578170939	0.416140708874789	0.2628746904364594	0.8807827535413072	-3.138441257528628	0.04217533765273887	-0.6810513452731911	0.8298712692870319	-3.094334203128426	-3.094334203128426	-0.4825074193306781	-0.0005087502693498837	-0.5673040517089191	-0.1806083853537272	-0.2455238319134955	0.03243730862471979	-0.01518887899932932	-0.2859971933619675	0.1092968194449825	0.02966718027169131	0.3146608224829406	-5.08654556854359	-9.416313570358431	-1.89724361892145	-21.3374445708158	-643.3873283539784	-51.56786101591592	-2.536482236037304	0.9821119609878292	1.357180236017191	-1.271170737822384	-1.157641892843319	0.3587003133928627	-0.8962768771756388	3.035245847065377	-1.727031833404059	-1.727031833403677	-0.2355201011771298	-0.03945122252922841	-1.684913781805796	-0.1214386087550826	6.941818473612325e-07	4.540197452700638e-06	-1.338226067782641e-06	4.701164626879837e-07	8.517062306239715e-07	6.156334602083128e-07	7.915215731837585e-07
1.54	-0.03900884498035238	-0.05031327908537458	0.7740115677943823	1.001962268770216	-0.3085850783869127	-0.09077665279907388	-0.828425336577823	1.092527985476491	1.092527985476477	0.004060350917836923	-0.1745227642153223	0.2162526979626292	0.06551774926760545	0.4254806201185165	0.2763883322537458	0.8674003567459053	-3.148710254559003	0.04602561698656767	-0.6896683912707768	0.8600762970160357	-3.110252840165052	-3.110252840165049	-0.4846207872615801	-0.000364256585354063	-0.5834862259688683	-0.1811974934288418	-0.235214516744401	0.03231686785587309	-0.0146131338130425	-0.2779247476479633	0.1089601258965039	0.0295258702392054	0.3041189642175955	-4.568647028258581	-9.703611781168789	-1.556755022565183	-21.46675460644207	-633.1708057240954	-51.60552791014453	-3.370683926590411	0.879797156796031	1.344942071249069	-1.406208002773449	-0.8831989530277854	0.4341895979043144	-0.8067892515053652	3.012364304614384	-1.449322624094745	-1.449322624094743	-0.1652199371836358	0.1153505587165711	-1.543695506850457	0.0351000307595534	7.427494027782626e-07	4.908011753896784e-06	-1.383165397953615e-06	4.728500035203783e-07	9.29418574375084e-07	8.203776529549243e-07	8.297513617615e-07
1.55	-0.0347106945768589	-0.04748234505345659	0.7826133189112522	0.9704333457643134	-0.308105306043143	-0.09771578453611721	-0.8196757465148844	1.061356624867332	1.061356624867315	-0.0007959467425933457	-0.1745254226694391	0.2103420711985389	0.06370545621339942	0.4340079518499141	0.2897707232450039	0.852739917327977	-3.156668779756996	0.04995034544870848	-0.6981096654802253	0.8897470488377242	-3.123555075220295	-3.123555075220292	-0.4866185741231706	-0.0001302642073006974	-0.5984137748519023	-0.1811371716790585	-0.2248880938781981	0.03172826079457362	-0.01408278684556117	-0.2702575146004142	0.1086598493161979	0.02925457120085403	0.2935315232871108	-4.077159778417136	-9.931128594847205	-1.224315468377078	-21.47233981719169	-623.3412710169533	-51.61930197420474	-4.315250975071796	0.8180276599002479	1.330822837822379	-1.527243341382991	-0.6912836857964317	0.3745051740886297	-0.85464900250804	2.930230610896046	-1.201218541910475	-1.201218541910536	-0.2130893906412495	-0.01722112481573564	-1.433210173283068	0.009359111612749452	7.822967420309335e-07	5.310980163894307e-06	-1.343573145263522e-06	4.834171333300851e-07	1.010036737335276e-06	1.06147391350157e-06	8.606481164538544e-07
1.56	-0.03033150556033424	-0.04451840006667435	0.7910622093479265	0.9388370166299096	-0.3075857082740083	-0.1047376995146198	-0.8106322889357388	1.030066132988485	1.030066132988466	-0.005671428537638809	-0.1745246701402976	0.2042889838267677	0.06189733854959624	0.4416883427248566	0.3029905232265975	0.8368282207068161	-3.162191480259446	0.05399070205963213	-0.706225039563413	0.9188498002574098	-3.134079094102395	-3.134079094102393	-0.4884576141845401	0.0003179400841325013	-0.6119783475050646	-0.1803624153482748	-0.2145616710119878	0.03113965373328639	-0.01355243987806928	-0.2625902815528643	0.1083595727358938	0.02898327216251859	0.2829440823566309	-3.57572800422613	-10.17597823811741	-0.8713032693273306	-21.57137903217548	-613.3817817239153	-51.73533756848096	-5.369528449123703	0.7104089855050056	1.312423869316137	-1.656459443419965	-0.396034013919389	0.4573152276609805	-0.7416092262530476	2.898764224213817	-0.8936793894662558	-0.8936793894662564	-0.1334705771393903	0.1581929413927564	-1.271100260876114	0.177986946959744	8.14269903177623e-07	5.712959273156085e-06	-1.297622574677291e-06	5.037494300386823e-07	1.078769530218663e-06	1.291547732877571e-06	8.91578941065215e-07
1.57	-0.02587979084169309	-0.04142329186049951	0.7993459165609823	0.90719763042413	-0.3070252040166712	-0.1118394177945151	-0.8013011461226403	0.9986841785518341	0.9986841785518223	-0.01056467876525795	-0.1745186629296996	0.198106909538371	0.06010035222235208	0.4485036907875057	0.3159797987294946	0.8197200804789762	-3.165255476547075	0.05812918987728618	-0.7140325807758164	0.9472379784627531	-3.141839834345461	-3.14183983434546	-0.4902016002280183	0.0009360677703347325	-0.6242202392641966	-0.1789255469752679	-0.204234562407247	0.03033671119497225	-0.01309048801910264	-0.2552709212916257	0.1076110061879009	0.02845168940340382	0.2722436603029627	-3.282544325791199	-10.26768781305408	-0.5468590157826542	-21.21710955903372	-603.9725139540462	-51.67944282985535	-6.528747385986539	0.644506580726378	1.284592503470021	-1.766729793250696	-0.1969863824347735	0.3945148295749169	-0.7864677565960704	2.78772703380688	-0.6466655863918034	-0.6466655863919281	-0.1951786164595433	0.0213064561661643	-1.167991290489372	0.142059528630113	8.367753416918359e-07	6.113701756498184e-06	-1.243724106720889e-06	5.362881853708921e-07	1.132645610506044e-06	1.507843500790268e-06	9.225523530753337e-07
1.58	-0.02136444086960961	-0.03819980827675695	0.8074527946756027	0.8755405234662248	-0.3064228350270064	-0.1190164397241044	-0.7916903450444657	0.9672387378638171	0.9672387378638171	-0.01547543205300891	-0.1745049376874423	0.1918089648009717	0.05832083912806976	0.4544153934134161	0.3286655987401418	0.8014624010197334	-3.165735630684708	0.06236364852522811	-0.721285769502708	0.9747814532725863	-3.146776344375129	-3.146776344375129	-0.4919582262117975	0.001861546413819432	-0.6351524373056343	-0.1768677687559063	-0.1939074538024994	0.02953376865666636	-0.01262853616009244	-0.2479515610303849	0.106862439639909	0.02792010664429892	0.2615432382492989	-2.977604704674669	-10.37753819013663	-0.2011527491540301	-20.96033736195705	-594.4110751873387	-51.72733739938052	-7.785999153918533	0.5296798981572748	1.251728770866171	-1.886367289700496	0.1207344160799622	0.4765093937184862	-0.6307387291508122	2.729823545111762	-0.3288333467866581	-0.3288333467866592	-0.1359985651995876	0.2196631328490688	-1.009161517337256	0.3021689162305827	8.391828513072689e-07	6.185742581054285e-06	-1.281279589096364e-06	5.248801498064444e-07	1.163833172990435e-06	1.621311439773547e-06	9.222988435928538e-07
